<?xml version="1.0" encoding="UTF-8"?>
<!-- Created by Makercase v3 -->
<svg width="281.00mm" height="149.00mm" viewBox="-2 -2 281.00 149.00" version="1.1" xmlns="http://www.w3.org/2000/svg" xmlns:xlink="http://www.w3.org/1999/xlink"><g transform="matrix(1, 0, 0, -1, 70, 120)">
<path stroke="#ff0000" stroke-width="0.25" fill="none" d="M-39.000 -20.000 L-28.250 -20.000 -28.250 -14.650 -29.750 -14.650 -29.750 -10.950 -28.250 -10.950 -28.250 -7.500 -23.750 -7.500 -23.750 -10.950 -22.250 -10.950 -22.250 -14.650 -23.750 -14.650 -23.750 -20.000 -13.000 -20.000 -13.000 -22.000 13.000 -22.000 13.000 -20.000 23.750 -20.000 23.750 -14.650 22.250 -14.650 22.250 -10.950 23.750 -10.950 23.750 -7.500 28.250 -7.500 28.250 -10.950 29.750 -10.950 29.750 -14.650 28.250 -14.650 28.250 -20.000 39.000 -20.000 39.000 -22.000 65.000 -22.000 67.000 -22.000 67.000 -20.000 67.000 -12.000 65.000 -12.000 65.000 -10.250 59.650 -10.250 59.650 -11.750 55.950 -11.750 55.950 -10.250 52.500 -10.250 52.500 -5.750 55.950 -5.750 55.950 -4.250 59.650 -4.250 59.650 -5.750 65.000 -5.750 65.000 -4.000 67.000 -4.000 67.000 4.000 65.000 4.000 65.000 5.750 59.650 5.750 59.650 4.250 55.950 4.250 55.950 5.750 52.500 5.750 52.500 10.250 55.950 10.250 55.950 11.750 59.650 11.750 59.650 10.250 65.000 10.250 65.000 12.000 67.000 12.000 67.000 20.000 65.000 20.000 -65.000 20.000 -67.000 20.000 -67.000 12.000 -65.000 12.000 -65.000 10.250 -59.650 10.250 -59.650 11.750 -55.950 11.750 -55.950 10.250 -52.500 10.250 -52.500 5.750 -55.950 5.750 -55.950 4.250 -59.650 4.250 -59.650 5.750 -65.000 5.750 -65.000 4.000 -67.000 4.000 -67.000 -4.000 -65.000 -4.000 -65.000 -5.750 -59.650 -5.750 -59.650 -4.250 -55.950 -4.250 -55.950 -5.750 -52.500 -5.750 -52.500 -10.250 -55.950 -10.250 -55.950 -11.750 -59.650 -11.750 -59.650 -10.250 -65.000 -10.250 -65.000 -12.000 -67.000 -12.000 -67.000 -20.000 -67.000 -22.000 -65.000 -22.000 -39.000 -22.000 Z"/>

</g>
<g transform="matrix(1, 0, 0, -1, 70, 75)">
<path stroke="#ff0000" stroke-width="0.25" fill="none" d="M-39.000 -20.000 L-28.250 -20.000 -28.250 -14.650 -29.750 -14.650 -29.750 -10.950 -28.250 -10.950 -28.250 -7.500 -23.750 -7.500 -23.750 -10.950 -22.250 -10.950 -22.250 -14.650 -23.750 -14.650 -23.750 -20.000 -13.000 -20.000 -13.000 -22.000 13.000 -22.000 13.000 -20.000 23.750 -20.000 23.750 -14.650 22.250 -14.650 22.250 -10.950 23.750 -10.950 23.750 -7.500 28.250 -7.500 28.250 -10.950 29.750 -10.950 29.750 -14.650 28.250 -14.650 28.250 -20.000 39.000 -20.000 39.000 -22.000 65.000 -22.000 67.000 -22.000 67.000 -20.000 67.000 -12.000 65.000 -12.000 65.000 -10.250 59.650 -10.250 59.650 -11.750 55.950 -11.750 55.950 -10.250 52.500 -10.250 52.500 -5.750 55.950 -5.750 55.950 -4.250 59.650 -4.250 59.650 -5.750 65.000 -5.750 65.000 -4.000 67.000 -4.000 67.000 4.000 65.000 4.000 65.000 5.750 59.650 5.750 59.650 4.250 55.950 4.250 55.950 5.750 52.500 5.750 52.500 10.250 55.950 10.250 55.950 11.750 59.650 11.750 59.650 10.250 65.000 10.250 65.000 12.000 67.000 12.000 67.000 20.000 65.000 20.000 -65.000 20.000 -67.000 20.000 -67.000 12.000 -65.000 12.000 -65.000 10.250 -59.650 10.250 -59.650 11.750 -55.950 11.750 -55.950 10.250 -52.500 10.250 -52.500 5.750 -55.950 5.750 -55.950 4.250 -59.650 4.250 -59.650 5.750 -65.000 5.750 -65.000 4.000 -67.000 4.000 -67.000 -4.000 -65.000 -4.000 -65.000 -5.750 -59.650 -5.750 -59.650 -4.250 -55.950 -4.250 -55.950 -5.750 -52.500 -5.750 -52.500 -10.250 -55.950 -10.250 -55.950 -11.750 -59.650 -11.750 -59.650 -10.250 -65.000 -10.250 -65.000 -12.000 -67.000 -12.000 -67.000 -20.000 -67.000 -22.000 -65.000 -22.000 -39.000 -22.000 Z"/>

</g>
<g transform="matrix(1, 0, 0, -1, 50, 30)">
<path stroke="#ff0000" stroke-width="0.25" fill="none" d="M-27.000 -20.000 L-20.250 -20.000 -20.250 -14.650 -21.750 -14.650 -21.750 -10.950 -20.250 -10.950 -20.250 -7.500 -15.750 -7.500 -15.750 -10.950 -14.250 -10.950 -14.250 -14.650 -15.750 -14.650 -15.750 -20.000 -9.000 -20.000 -9.000 -22.000 9.000 -22.000 9.000 -20.000 15.750 -20.000 15.750 -14.650 14.250 -14.650 14.250 -10.950 15.750 -10.950 15.750 -7.500 20.250 -7.500 20.250 -10.950 21.750 -10.950 21.750 -14.650 20.250 -14.650 20.250 -20.000 27.000 -20.000 27.000 -22.000 45.000 -22.000 45.000 -20.000 45.000 -12.000 47.000 -12.000 47.000 -10.250 42.500 -10.250 42.500 -5.750 47.000 -5.750 47.000 -4.000 45.000 -4.000 45.000 4.000 47.000 4.000 47.000 5.750 42.500 5.750 42.500 10.250 47.000 10.250 47.000 12.000 45.000 12.000 45.000 20.000 -45.000 20.000 -45.000 12.000 -47.000 12.000 -47.000 10.250 -42.500 10.250 -42.500 5.750 -47.000 5.750 -47.000 4.000 -45.000 4.000 -45.000 -4.000 -47.000 -4.000 -47.000 -5.750 -42.500 -5.750 -42.500 -10.250 -47.000 -10.250 -47.000 -12.000 -45.000 -12.000 -45.000 -20.000 -45.000 -22.000 -27.000 -22.000 Z"/>

</g>
<g transform="matrix(1, 0, 0, -1, 147, 23)">
<path stroke="#ff0000" stroke-width="0.25" fill="none" d="M-27.000 -20.000 L-20.250 -20.000 -20.250 -14.650 -21.750 -14.650 -21.750 -10.950 -20.250 -10.950 -20.250 -7.500 -15.750 -7.500 -15.750 -10.950 -14.250 -10.950 -14.250 -14.650 -15.750 -14.650 -15.750 -20.000 -9.000 -20.000 -9.000 -22.000 9.000 -22.000 9.000 -20.000 15.750 -20.000 15.750 -14.650 14.250 -14.650 14.250 -10.950 15.750 -10.950 15.750 -7.500 20.250 -7.500 20.250 -10.950 21.750 -10.950 21.750 -14.650 20.250 -14.650 20.250 -20.000 27.000 -20.000 27.000 -22.000 45.000 -22.000 45.000 -20.000 45.000 -12.000 47.000 -12.000 47.000 -10.250 42.500 -10.250 42.500 -5.750 47.000 -5.750 47.000 -4.000 45.000 -4.000 45.000 4.000 47.000 4.000 47.000 5.750 42.500 5.750 42.500 10.250 47.000 10.250 47.000 12.000 45.000 12.000 45.000 20.000 -45.000 20.000 -45.000 12.000 -47.000 12.000 -47.000 10.250 -42.500 10.250 -42.500 5.750 -47.000 5.750 -47.000 4.000 -45.000 4.000 -45.000 -4.000 -47.000 -4.000 -47.000 -5.750 -42.500 -5.750 -42.500 -10.250 -47.000 -10.250 -47.000 -12.000 -45.000 -12.000 -45.000 -20.000 -45.000 -22.000 -27.000 -22.000 Z"/>

</g>
<g transform="matrix(1, 0, 0, -1, 207, 95)">
<path stroke="#ff0000" stroke-width="0.25" fill="none" d="M-13.000 -45.000 L13.000 -45.000 13.000 -47.000 23.750 -47.000 23.750 -42.500 28.250 -42.500 28.250 -47.000 39.000 -47.000 39.000 -45.000 65.000 -45.000 65.000 -27.000 67.000 -27.000 67.000 -20.250 62.500 -20.250 62.500 -15.750 67.000 -15.750 67.000 -9.000 65.000 -9.000 65.000 9.000 67.000 9.000 67.000 15.750 62.500 15.750 62.500 20.250 67.000 20.250 67.000 27.000 65.000 27.000 65.000 45.000 39.000 45.000 39.000 47.000 28.250 47.000 28.250 42.500 23.750 42.500 23.750 47.000 13.000 47.000 13.000 45.000 -13.000 45.000 -13.000 47.000 -23.750 47.000 -23.750 42.500 -28.250 42.500 -28.250 47.000 -39.000 47.000 -39.000 45.000 -65.000 45.000 -65.000 27.000 -67.000 27.000 -67.000 20.250 -62.500 20.250 -62.500 15.750 -67.000 15.750 -67.000 9.000 -65.000 9.000 -65.000 -9.000 -67.000 -9.000 -67.000 -15.750 -62.500 -15.750 -62.500 -20.250 -67.000 -20.250 -67.000 -27.000 -65.000 -27.000 -65.000 -45.000 -39.000 -45.000 -39.000 -47.000 -28.250 -47.000 -28.250 -42.500 -23.750 -42.500 -23.750 -47.000 -13.000 -47.000 Z"/>

</g></svg>