<?xml version="1.0" encoding="UTF-8"?>
<!-- Created by Makercase v3 -->
<svg width="261.00mm" height="142.00mm" viewBox="-2 -2 261.00 142.00" version="1.1" xmlns="http://www.w3.org/2000/svg" xmlns:xlink="http://www.w3.org/1999/xlink"><g transform="matrix(1, 0, 0, -1, 65, 113)">
<path stroke="#ff0000" stroke-width="0.25" fill="none" d="M-36.000 -20.000 L-26.250 -20.000 -26.250 -14.650 -27.750 -14.650 -27.750 -10.950 -26.250 -10.950 -26.250 -7.500 -21.750 -7.500 -21.750 -10.950 -20.250 -10.950 -20.250 -14.650 -21.750 -14.650 -21.750 -20.000 -12.000 -20.000 -12.000 -22.000 12.000 -22.000 12.000 -20.000 21.750 -20.000 21.750 -14.650 20.250 -14.650 20.250 -10.950 21.750 -10.950 21.750 -7.500 26.250 -7.500 26.250 -10.950 27.750 -10.950 27.750 -14.650 26.250 -14.650 26.250 -20.000 36.000 -20.000 36.000 -22.000 60.000 -22.000 62.000 -22.000 62.000 -20.000 62.000 -12.000 60.000 -12.000 60.000 -10.250 54.650 -10.250 54.650 -11.750 50.950 -11.750 50.950 -10.250 47.500 -10.250 47.500 -5.750 50.950 -5.750 50.950 -4.250 54.650 -4.250 54.650 -5.750 60.000 -5.750 60.000 -4.000 62.000 -4.000 62.000 4.000 60.000 4.000 60.000 5.750 54.650 5.750 54.650 4.250 50.950 4.250 50.950 5.750 47.500 5.750 47.500 10.250 50.950 10.250 50.950 11.750 54.650 11.750 54.650 10.250 60.000 10.250 60.000 12.000 62.000 12.000 62.000 20.000 60.000 20.000 -60.000 20.000 -62.000 20.000 -62.000 12.000 -60.000 12.000 -60.000 10.250 -54.650 10.250 -54.650 11.750 -50.950 11.750 -50.950 10.250 -47.500 10.250 -47.500 5.750 -50.950 5.750 -50.950 4.250 -54.650 4.250 -54.650 5.750 -60.000 5.750 -60.000 4.000 -62.000 4.000 -62.000 -4.000 -60.000 -4.000 -60.000 -5.750 -54.650 -5.750 -54.650 -4.250 -50.950 -4.250 -50.950 -5.750 -47.500 -5.750 -47.500 -10.250 -50.950 -10.250 -50.950 -11.750 -54.650 -11.750 -54.650 -10.250 -60.000 -10.250 -60.000 -12.000 -62.000 -12.000 -62.000 -20.000 -62.000 -22.000 -60.000 -22.000 -36.000 -22.000 Z"/>

4.000 -62.000 -4.000 -60.000 -4.000 -60.000 -5.750 -54.650 -5.750 -54.650 -4.250 -50.950 -4.250 -50.950 -5.750 -47.500 -5.750 -47.500 -10.250 -50.950 -10.250 -50.950 -11.750 -54.650 -11.750 -54.650 -10.250 -60.000 -10.250 -60.000 -12.000 -62.000 -12.000 -62.000 -20.000 -62.000 -22.000 -60.000 -22.000 -36.000 -22.000 Z"/>
</g>
<g transform="matrix(1, 0, 0, -1, 65, 68)">
<path stroke="#ff0000" stroke-width="0.25" fill="none" d="M-36.000 -20.000 L-26.250 -20.000 -26.250 -14.650 -27.750 -14.650 -27.750 -10.950 -26.250 -10.950 -26.250 -7.500 -21.750 -7.500 -21.750 -10.950 -20.250 -10.950 -20.250 -14.650 -21.750 -14.650 -21.750 -20.000 -12.000 -20.000 -12.000 -22.000 12.000 -22.000 12.000 -20.000 21.750 -20.000 21.750 -14.650 20.250 -14.650 20.250 -10.950 21.750 -10.950 21.750 -7.500 26.250 -7.500 26.250 -10.950 27.750 -10.950 27.750 -14.650 26.250 -14.650 26.250 -20.000 36.000 -20.000 36.000 -22.000 60.000 -22.000 62.000 -22.000 62.000 -20.000 62.000 -12.000 60.000 -12.000 60.000 -10.250 54.650 -10.250 54.650 -11.750 50.950 -11.750 50.950 -10.250 47.500 -10.250 47.500 -5.750 50.950 -5.750 50.950 -4.250 54.650 -4.250 54.650 -5.750 60.000 -5.750 60.000 -4.000 62.000 -4.000 62.000 4.000 60.000 4.000 60.000 5.750 54.650 5.750 54.650 4.250 50.950 4.250 50.950 5.750 47.500 5.750 47.500 10.250 50.950 10.250 50.950 11.750 54.650 11.750 54.650 10.250 60.000 10.250 60.000 12.000 62.000 12.000 62.000 20.000 60.000 20.000 -60.000 20.000 -62.000 20.000 -62.000 12.000 -60.000 12.000 -60.000 10.250 -54.650 10.250 -54.650 11.750 -50.950 11.750 -50.950 10.250 -47.500 10.250 -47.500 5.750 -50.950 5.750 -50.950 4.250 -54.650 4.250 -54.650 5.750 -60.000 5.750 -60.000 4.000 -62.000 4.000 -62.000 -4.000 -60.000 -4.000 -60.000 -5.750 -54.650 -5.750 -54.650 -4.250 -50.950 -4.250 -50.950 -5.750 -47.500 -5.750 -47.500 -10.250 -50.950 -10.250 -50.950 -11.750 -54.650 -11.750 -54.650 -10.250 -60.000 -10.250 -60.000 -12.000 -62.000 -12.000 -62.000 -20.000 -62.000 -22.000 -60.000 -22.000 -36.000 -22.000 Z"/>

</g>
<g transform="matrix(1, 0, 0, -1, 172, 26)">
<path stroke="#ff0000" stroke-width="0.25" fill="none" d="M-24.000 -20.000 L-18.250 -20.000 -18.250 -14.650 -19.750 -14.650 -19.750 -10.950 -18.250 -10.950 -18.250 -7.500 -13.750 -7.500 -13.750 -10.950 -12.250 -10.950 -12.250 -14.650 -13.750 -14.650 -13.750 -20.000 -8.000 -20.000 -8.000 -22.000 8.000 -22.000 8.000 -20.000 13.750 -20.000 13.750 -14.650 12.250 -14.650 12.250 -10.950 13.750 -10.950 13.750 -7.500 18.250 -7.500 18.250 -10.950 19.750 -10.950 19.750 -14.650 18.250 -14.650 18.250 -20.000 24.000 -20.000 24.000 -22.000 40.000 -22.000 40.000 -20.000 40.000 -12.000 42.000 -12.000 42.000 -10.250 37.500 -10.250 37.500 -5.750 42.000 -5.750 42.000 -4.000 40.000 -4.000 40.000 4.000 42.000 4.000 42.000 5.750 37.500 5.750 37.500 10.250 42.000 10.250 42.000 12.000 40.000 12.000 40.000 20.000 -40.000 20.000 -40.000 12.000 -42.000 12.000 -42.000 10.250 -37.500 10.250 -37.500 5.750 -42.000 5.750 -42.000 4.000 -40.000 4.000 -40.000 -4.000 -42.000 -4.000 -42.000 -5.750 -37.500 -5.750 -37.500 -10.250 -42.000 -10.250 -42.000 -12.000 -40.000 -12.000 -40.000 -20.000 -40.000 -22.000 -24.000 -22.000 Z"/>

</g>
<g transform="matrix(1, 0, 0, -1, 45, 23)">
<path stroke="#ff0000" stroke-width="0.25" fill="none" d="M-24.000 -20.000 L-18.250 -20.000 -18.250 -14.650 -19.750 -14.650 -19.750 -10.950 -18.250 -10.950 -18.250 -7.500 -13.750 -7.500 -13.750 -10.950 -12.250 -10.950 -12.250 -14.650 -13.750 -14.650 -13.750 -20.000 -8.000 -20.000 -8.000 -22.000 8.000 -22.000 8.000 -20.000 13.750 -20.000 13.750 -14.650 12.250 -14.650 12.250 -10.950 13.750 -10.950 13.750 -7.500 18.250 -7.500 18.250 -10.950 19.750 -10.950 19.750 -14.650 18.250 -14.650 18.250 -20.000 24.000 -20.000 24.000 -22.000 40.000 -22.000 40.000 -20.000 40.000 -12.000 42.000 -12.000 42.000 -10.250 37.500 -10.250 37.500 -5.750 42.000 -5.750 42.000 -4.000 40.000 -4.000 40.000 4.000 42.000 4.000 42.000 5.750 37.500 5.750 37.500 10.250 42.000 10.250 42.000 12.000 40.000 12.000 40.000 20.000 -40.000 20.000 -40.000 12.000 -42.000 12.000 -42.000 10.250 -37.500 10.250 -37.500 5.750 -42.000 5.750 -42.000 4.000 -40.000 4.000 -40.000 -4.000 -42.000 -4.000 -42.000 -5.750 -37.500 -5.750 -37.500 -10.250 -42.000 -10.250 -42.000 -12.000 -40.000 -12.000 -40.000 -20.000 -40.000 -22.000 -24.000 -22.000 Z"/>

</g>
<g transform="matrix(1, 0, 0, -1, 192, 93)">
<path stroke="#ff0000" stroke-width="0.25" fill="none" d="M-12.000 -40.000 L12.000 -40.000 12.000 -42.000 21.750 -42.000 21.750 -37.500 26.250 -37.500 26.250 -42.000 36.000 -42.000 36.000 -40.000 60.000 -40.000 60.000 -24.000 62.000 -24.000 62.000 -18.250 57.500 -18.250 57.500 -13.750 62.000 -13.750 62.000 -8.000 60.000 -8.000 60.000 8.000 62.000 8.000 62.000 13.750 57.500 13.750 57.500 18.250 62.000 18.250 62.000 24.000 60.000 24.000 60.000 40.000 36.000 40.000 36.000 42.000 26.250 42.000 26.250 37.500 21.750 37.500 21.750 42.000 12.000 42.000 12.000 40.000 -12.000 40.000 -12.000 42.000 -21.750 42.000 -21.750 37.500 -26.250 37.500 -26.250 42.000 -36.000 42.000 -36.000 40.000 -60.000 40.000 -60.000 24.000 -62.000 24.000 -62.000 18.250 -57.500 18.250 -57.500 13.750 -62.000 13.750 -62.000 8.000 -60.000 8.000 -60.000 -8.000 -62.000 -8.000 -62.000 -13.750 -57.500 -13.750 -57.500 -18.250 -62.000 -18.250 -62.000 -24.000 -60.000 -24.000 -60.000 -40.000 -36.000 -40.000 -36.000 -42.000 -26.250 -42.000 -26.250 -37.500 -21.750 -37.500 -21.750 -42.000 -12.000 -42.000 Z"/>

</g></svg>