<?xml version="1.0" encoding="UTF-8"?>
<!-- Created by Makercase v3 -->
<svg width="221.00mm" height="142.00mm" viewBox="-2 -2 221.00 142.00" version="1.1" xmlns="http://www.w3.org/2000/svg" xmlns:xlink="http://www.w3.org/1999/xlink"><g transform="matrix(1, 0, 0, -1, 55, 113)">
<path stroke="#ff0000" stroke-width="0.25" fill="none" d="M-16.667 -20.000 L-1.750 -20.000 -1.750 -15.050 -3.000 -15.050 -3.000 -12.150 -1.750 -12.150 -1.750 -9.500 1.750 -9.500 1.750 -12.150 3.000 -12.150 3.000 -15.050 1.750 -15.050 1.750 -20.000 16.667 -20.000 16.667 -22.000 50.000 -22.000 52.000 -22.000 52.000 -20.000 52.000 -6.667 50.000 -6.667 50.000 -1.750 45.050 -1.750 45.050 -3.000 42.150 -3.000 42.150 -1.750 39.500 -1.750 39.500 1.750 42.150 1.750 42.150 3.000 45.050 3.000 45.050 1.750 50.000 1.750 50.000 6.667 52.000 6.667 52.000 20.000 50.000 20.000 -50.000 20.000 -52.000 20.000 -52.000 6.667 -50.000 6.667 -50.000 1.750 -45.050 1.750 -45.050 3.000 -42.150 3.000 -42.150 1.750 -39.500 1.750 -39.500 -1.750 -42.150 -1.750 -42.150 -3.000 -45.050 -3.000 -45.050 -1.750 -50.000 -1.750 -50.000 -6.667 -52.000 -6.667 -52.000 -20.000 -52.000 -22.000 -50.000 -22.000 -16.667 -22.000 Z"/>

</g>
<g transform="matrix(1, 0, 0, -1, 55, 68)">
<path stroke="#ff0000" stroke-width="0.25" fill="none" d="M-16.667 -20.000 L-1.750 -20.000 -1.750 -15.050 -3.000 -15.050 -3.000 -12.150 -1.750 -12.150 -1.750 -9.500 1.750 -9.500 1.750 -12.150 3.000 -12.150 3.000 -15.050 1.750 -15.050 1.750 -20.000 16.667 -20.000 16.667 -22.000 50.000 -22.000 52.000 -22.000 52.000 -20.000 52.000 -6.667 50.000 -6.667 50.000 -1.750 45.050 -1.750 45.050 -3.000 42.150 -3.000 42.150 -1.750 39.500 -1.750 39.500 1.750 42.150 1.750 42.150 3.000 45.050 3.000 45.050 1.750 50.000 1.750 50.000 6.667 52.000 6.667 52.000 20.000 50.000 20.000 -50.000 20.000 -52.000 20.000 -52.000 6.667 -50.000 6.667 -50.000 1.750 -45.050 1.750 -45.050 3.000 -42.150 3.000 -42.150 1.750 -39.500 1.750 -39.500 -1.750 -42.150 -1.750 -42.150 -3.000 -45.050 -3.000 -45.050 -1.750 -50.000 -1.750 -50.000 -6.667 -52.000 -6.667 -52.000 -20.000 -52.000 -22.000 -50.000 -22.000 -16.667 -22.000 Z"/>

</g>
<g transform="matrix(1, 0, 0, -1, 149.5, 31)">
<path stroke="#ff0000" stroke-width="0.25" fill="none" d="M-12.500 -20.000 L-1.750 -20.000 -1.750 -15.050 -3.000 -15.050 -3.000 -12.150 -1.750 -12.150 -1.750 -9.500 1.750 -9.500 1.750 -12.150 3.000 -12.150 3.000 -15.050 1.750 -15.050 1.750 -20.000 12.500 -20.000 12.500 -22.000 37.500 -22.000 37.500 -20.000 37.500 -6.667 39.500 -6.667 39.500 -1.750 36.000 -1.750 36.000 1.750 39.500 1.750 39.500 6.667 37.500 6.667 37.500 20.000 -37.500 20.000 -37.500 6.667 -39.500 6.667 -39.500 1.750 -36.000 1.750 -36.000 -1.750 -39.500 -1.750 -39.500 -6.667 -37.500 -6.667 -37.500 -20.000 -37.500 -22.000 -12.500 -22.000 Z"/>

</g>
<g transform="matrix(1, 0, 0, -1, 42.5, 23)">
<path stroke="#ff0000" stroke-width="0.25" fill="none" d="M-12.500 -20.000 L-1.750 -20.000 -1.750 -15.050 -3.000 -15.050 -3.000 -12.150 -1.750 -12.150 -1.750 -9.500 1.750 -9.500 1.750 -12.150 3.000 -12.150 3.000 -15.050 1.750 -15.050 1.750 -20.000 12.500 -20.000 12.500 -22.000 37.500 -22.000 37.500 -20.000 37.500 -6.667 39.500 -6.667 39.500 -1.750 36.000 -1.750 36.000 1.750 39.500 1.750 39.500 6.667 37.500 6.667 37.500 20.000 -37.500 20.000 -37.500 6.667 -39.500 6.667 -39.500 1.750 -36.000 1.750 -36.000 -1.750 -39.500 -1.750 -39.500 -6.667 -37.500 -6.667 -37.500 -20.000 -37.500 -22.000 -12.500 -22.000 Z"/>

</g>
<g transform="matrix(1, 0, 0, -1, 162, 95.5)">
<path stroke="#ff0000" stroke-width="0.25" fill="none" d="M16.667 -37.500 L50.000 -37.500 50.000 -12.500 52.000 -12.500 52.000 -1.750 48.500 -1.750 48.500 1.750 52.000 1.750 52.000 12.500 50.000 12.500 50.000 37.500 16.667 37.500 16.667 39.500 1.750 39.500 1.750 36.000 -1.750 36.000 -1.750 39.500 -16.667 39.500 -16.667 37.500 -50.000 37.500 -50.000 12.500 -52.000 12.500 -52.000 1.750 -48.500 1.750 -48.500 -1.750 -52.000 -1.750 -52.000 -12.500 -50.000 -12.500 -50.000 -37.500 -16.667 -37.500 -16.667 -39.500 -1.750 -39.500 -1.750 -36.000 1.750 -36.000 1.750 -39.500 16.667 -39.500 Z"/>

</g></svg>